<svg width="22" height="24" viewBox="0 0 22 24" fill="none" xmlns="http://www.w3.org/2000/svg">
<path fill-rule="evenodd" clip-rule="evenodd" d="M1.99996 15.0001H9.86718L9.00768 21.876C8.88383 22.8669 10.1289 23.4074 10.7682 22.6402L20.7682 10.6402C21.311 9.98892 20.8478 9.00006 20 9.00006H12.1327L12.9922 2.1241C13.1161 1.13326 11.871 0.592776 11.2317 1.35988L1.23174 13.3599C0.688964 14.0112 1.15212 15.0001 1.99996 15.0001ZM4.135 13.0001L10.5846 5.26052L10.0077 9.87603C9.93307 10.4729 10.3985 11.0001 11 11.0001H17.8649L11.4153 18.7396L11.9922 14.1241C12.0668 13.5272 11.6015 13.0001 11 13.0001H4.135Z" fill="white"/>
</svg>
