<svg width="20" height="22" viewBox="0 0 20 22" fill="none" xmlns="http://www.w3.org/2000/svg">
<path fill-rule="evenodd" clip-rule="evenodd" d="M8 20C8.55229 20 9 20.4477 9 21C9 21.5523 8.55229 22 8 22H3C1.34315 22 0 20.6569 0 19V3C0 1.34315 1.34315 0 3 0H8C8.55229 0 9 0.447715 9 1C9 1.55228 8.55229 2 8 2H3C2.44772 2 2 2.44772 2 3V19C2 19.5523 2.44772 20 3 20H8ZM16.5858 10L14.2929 7.70711C13.9024 7.31658 13.9024 6.68342 14.2929 6.29289C14.6834 5.90237 15.3166 5.90237 15.7071 6.29289L19.7071 10.2929C19.8902 10.476 19.9874 10.7123 19.9989 10.952C19.9996 10.968 20 10.984 20 11M16.5858 12H7C6.44772 12 6 11.5523 6 11C6 10.4477 6.44772 10 7 10H16.5858M16.5858 12L14.2929 14.2929C13.9024 14.6834 13.9024 15.3166 14.2929 15.7071C14.6834 16.0976 15.3166 16.0976 15.7071 15.7071L19.7071 11.7071C19.9 11.5142 19.9976 11.2621 20 11.0092" fill="white"/>
</svg>
