<svg width="23" height="20" viewBox="0 0 23 20" fill="none" xmlns="http://www.w3.org/2000/svg">
<path d="M11.6681 14.5547C10.3966 14.0637 8.98427 13.4528 8.86585 13.073V12.6737C9.15189 12.367 9.35642 11.9933 9.46079 11.5871C9.53288 11.5354 9.59363 11.4695 9.63927 11.3934C9.68492 11.3173 9.71448 11.2327 9.72618 11.1448C9.73788 11.0568 9.73148 10.9674 9.70732 10.8821C9.68316 10.7967 9.64174 10.7172 9.58568 10.6485V9.75602C9.58568 8.83399 9.07236 8.20293 7.89906 8.20293C7.68159 8.17085 7.45965 8.18776 7.24957 8.25246C7.03948 8.31717 6.84651 8.42801 6.68477 8.57688C6.52303 8.72575 6.39663 8.90889 6.31476 9.1129C6.2329 9.31691 6.19767 9.53665 6.21164 9.75602V10.6492C6.15555 10.7179 6.11414 10.7973 6.08992 10.8827C6.06571 10.968 6.05916 11.0574 6.0708 11.1453C6.08243 11.2333 6.11195 11.3179 6.15753 11.394C6.2031 11.4701 6.2638 11.5361 6.33583 11.5878C6.44073 11.994 6.64546 12.3676 6.93147 12.6745V13.0737C6.81306 13.4535 5.40078 14.0637 4.12927 14.5554C4.076 14.5763 4.0303 14.613 3.99821 14.6604C3.96612 14.7078 3.94913 14.7638 3.94947 14.8211V15.8182C3.94919 15.8552 3.95621 15.8919 3.9701 15.9261C3.98398 15.9604 4.00452 15.9916 4.03047 16.018C4.05642 16.0443 4.08729 16.0653 4.12134 16.0797C4.1554 16.0941 4.19198 16.1017 4.22896 16.102H11.5684C11.6053 16.1017 11.6419 16.0941 11.676 16.0797C11.71 16.0653 11.7409 16.0443 11.7669 16.018C11.7928 15.9916 11.8133 15.9604 11.8272 15.9261C11.8411 15.8919 11.8481 15.8552 11.8479 15.8182V14.8211C11.8483 14.7637 11.8314 14.7075 11.7993 14.66C11.7672 14.6124 11.7214 14.5757 11.6681 14.5547V14.5547Z" stroke="white" stroke-width="1.5" stroke-linecap="round" stroke-linejoin="round"/>
<path d="M13.292 1.27438C13.2158 1.18829 13.1222 1.11932 13.0174 1.07203C12.9126 1.02474 12.799 1.00019 12.6841 1H10.2624C10.1473 1.00018 10.0336 1.02472 9.92867 1.07201C9.82376 1.1193 9.73002 1.18827 9.65367 1.27438C9.57746 1.36124 9.5203 1.4631 9.48586 1.57341C9.45141 1.68371 9.44045 1.80002 9.45369 1.91481L9.93748 6.01669C9.9603 6.21512 10.0552 6.39827 10.2041 6.53137C10.353 6.66447 10.5456 6.73826 10.7454 6.73872H12.2003C12.4001 6.73828 12.5928 6.66453 12.7419 6.53144C12.8909 6.39835 12.986 6.21518 13.0089 6.01669L13.492 1.91481C13.5055 1.8 13.4947 1.68365 13.4602 1.5733C13.4258 1.46295 13.3685 1.3611 13.292 1.27438V1.27438Z" stroke="white" stroke-width="1.5" stroke-linecap="round" stroke-linejoin="round"/>
<path d="M13.292 1.27438C13.2158 1.18829 13.1222 1.11932 13.0174 1.07203C12.9126 1.02474 12.799 1.00019 12.6841 1H10.2624C10.1473 1.00018 10.0336 1.02472 9.92867 1.07201C9.82376 1.1193 9.73002 1.18827 9.65367 1.27438C9.57746 1.36124 9.5203 1.4631 9.48586 1.57341C9.45141 1.68371 9.44045 1.80002 9.45369 1.91481L9.93748 6.01669C9.9603 6.21512 10.0552 6.39827 10.2041 6.53137C10.353 6.66447 10.5456 6.73826 10.7454 6.73872H12.2003C12.4001 6.73828 12.5928 6.66453 12.7419 6.53144C12.8909 6.39835 12.986 6.21518 13.0089 6.01669L13.492 1.91481C13.5055 1.8 13.4947 1.68365 13.4602 1.5733C13.4258 1.46295 13.3685 1.3611 13.292 1.27438V1.27438Z" stroke="white" stroke-width="1.5" stroke-linecap="round" stroke-linejoin="round"/>
<path d="M13.1757 4.60083H21.939V19.0415H1V4.60083H9.76981" stroke="white" stroke-width="1.5" stroke-linecap="round" stroke-linejoin="round"/>
<path d="M14.0061 10.3771H19.0603" stroke="white" stroke-width="1.5" stroke-linecap="round" stroke-linejoin="round"/>
<path d="M14.0061 12.5432H19.0603" stroke="white" stroke-width="1.5" stroke-linecap="round" stroke-linejoin="round"/>
</svg>
