<svg width="23" height="20" viewBox="0 0 23 20" fill="none" xmlns="http://www.w3.org/2000/svg">
<path d="M21.8513 5.52962H2.41479V3.74777C2.41479 3.25682 2.6099 2.78603 2.95706 2.43887C3.30422 2.09171 3.775 1.89661 4.26596 1.89661H20.9272C21.1727 1.89661 21.4081 1.99416 21.5816 2.16774C21.7552 2.34132 21.8528 2.57671 21.8528 2.82219L21.8513 5.52962Z" stroke="white" stroke-width="1.2" stroke-linecap="round" stroke-linejoin="round"/>
<path d="M11.1024 7.66833C11.1024 7.66833 10.8264 9.37781 11.1024 9.86119" stroke="white" stroke-width="1.2" stroke-linecap="round" stroke-linejoin="round"/>
<path d="M5.89062 7.66833H6.7649" stroke="white" stroke-width="1.2" stroke-linecap="round" stroke-linejoin="round"/>
<path d="M5.73341 18.0585C5.73341 18.0585 5.44438 18.4256 5.19582 18.4256H1.45089C1.19366 18.4256 1.10125 18.2312 1.18073 18.0585" stroke="white" stroke-width="1.2" stroke-linecap="round" stroke-linejoin="round"/>
<path d="M4.26416 1.89668V1" stroke="white" stroke-width="1.2" stroke-linecap="round" stroke-linejoin="round"/>
<path d="M20.9253 1.89668V1" stroke="white" stroke-width="1.2" stroke-linecap="round" stroke-linejoin="round"/>
<path d="M3.19709 7.03027C3.19709 7.03027 3.71017 8.7384 3.26942 9.716C3.26942 9.716 1.01356 14.6922 1.00706 16.0889C0.9794 16.3125 1.0336 16.5384 1.15965 16.7252C1.28569 16.9119 1.47512 17.0468 1.69282 17.1048C1.78242 17.1142 6.5461 17.0628 6.5461 17.0628C5.99335 16.8995 6.52591 14.9594 7.07865 15.1234C6.52591 14.9594 7.05767 13.0195 7.61042 13.1835C7.05767 13.0195 7.58944 11.0802 8.14219 11.2435L9.27954 7.66832L19.713 7.55278V7.03027" stroke="white" stroke-width="1.2" stroke-linecap="round" stroke-linejoin="round"/>
<path d="M13.9097 7.97412V9.85986C13.9134 10.048 13.8788 10.235 13.8081 10.4094C13.7373 10.5837 13.6319 10.7418 13.4982 10.8742C13.3645 11.0066 13.2052 11.1104 13.0301 11.1794C12.8551 11.2483 12.6678 11.2809 12.4798 11.2753L8.13867 11.2436" stroke="white" stroke-width="1.2" stroke-linecap="round" stroke-linejoin="round"/>
</svg>
